<?xml version="1.0" encoding="UTF-8"?><svg id="Capa_2" xmlns="http://www.w3.org/2000/svg" viewBox="0 0 380.15 110.52"><g id="Capa_1-2"><rect width="380.15" height="110.52" fill="none"/><g><polygon points="225.82 42.15 190.2 42.15 190.2 51.74 202.19 51.74 202.19 69.88 213.94 69.88 213.94 51.74 225.82 51.74 225.82 42.15" fill="#2d2a26"/><path d="m194.99,69.88l-13.22-27.64h-17.12l-13.68,27.64s14.39.09,14.54,0l4.17-10.28s7.86,2.17,10.77,10.28h14.54Zm-24.85-11.52l3.5-8.72,2.67,8.72h-6.18Z" fill="#2d2a26"/><path d="m148.07,42.78v8.6c-.18-.23-.72-.43-1.28-.62-5.51-1.95-12.49-2.26-14.14-1.72-1.49.47-1.81,1.45-.71,2.07.71.43,4.46,1.01,8.47,1.96,9.52,2.19,13.14,5.91,9.6,11.39-2.91,4.69-14.47,7.43-30.29,4.61-.94-.15-1.19-.58-3.15-.77v-8.96c1.57.27,2.2.59,2.83.82,3.93,1.64,11.26,2.7,14.25,2.39,2.19-.2,3.15-1.21,2.04-2.08-.63-.51-5.03-.97-8.81-1.79-9.83-2.16-12.52-5.75-9.69-10.92,2.28-4.19,9.85-6.88,22.28-6.14,2.2.12,4.4.39,6.6.74.79.12,1.57.27,1.98.43" fill="#2d2a26"/><path d="m105.33,39.51c0,7.88-6.39,14.27-14.27,14.27s-14.27-6.39-14.27-14.27,6.39-14.27,14.27-14.27,14.27,6.39,14.27,14.27" fill="#0055b8"/><path d="m74,39.51c0,7.88-6.39,14.27-14.26,14.27s-14.27-6.39-14.27-14.27,6.39-14.27,14.27-14.27,14.26,6.39,14.26,14.27" fill="#0055b8"/><path d="m74,70.84c0,7.88-6.39,14.27-14.26,14.27s-14.27-6.39-14.27-14.27,6.39-14.26,14.27-14.26,14.26,6.39,14.26,14.26" fill="#0055b8"/><path d="m105.33,70.95c0,7.88-6.39,14.26-14.27,14.26s-14.27-6.39-14.27-14.26,6.39-14.27,14.27-14.27,14.27,6.39,14.27,14.27" fill="#0055b8"/><path d="m116.64,85.09c-.45-.13-.8-.3-1.08-.5l.48-1.06c.26.19.57.35.93.46.36.11.71.17,1.07.17.4,0,.68-.06.88-.17.19-.12.28-.28.28-.47,0-.15-.05-.27-.17-.36-.11-.09-.26-.17-.43-.23-.18-.05-.41-.12-.71-.19-.46-.11-.84-.22-1.13-.33-.3-.11-.55-.28-.76-.52-.21-.24-.31-.57-.31-.97,0-.35.1-.67.28-.95.19-.29.47-.52.86-.68.39-.17.85-.25,1.41-.25.39,0,.76.04,1.13.14.37.09.69.22.97.39l-.43,1.07c-.56-.32-1.12-.48-1.67-.48-.4,0-.68.07-.87.19-.19.13-.29.29-.29.5s.11.36.32.46c.22.1.55.2.99.3.46.11.84.22,1.13.33.3.11.55.28.76.52.21.24.31.56.31.96,0,.35-.09.66-.28.94-.2.29-.49.52-.87.68-.39.17-.86.25-1.41.25-.48,0-.94-.06-1.39-.19" fill="#797774"/><polygon points="126.75 84.05 126.75 85.18 122.07 85.18 122.07 79.13 126.63 79.13 126.63 80.25 123.46 80.25 123.46 81.57 126.27 81.57 126.27 82.65 123.46 82.65 123.46 84.05 126.75 84.05" fill="#797774"/><path d="m132.24,85.18l-1.17-1.69h-1.29v1.69h-1.4v-6.05h2.62c.54,0,1,.08,1.39.26.4.18.7.43.91.76.21.33.32.72.32,1.17s-.1.83-.32,1.16c-.22.33-.53.58-.92.75l1.35,1.95h-1.51Zm-.35-4.64c-.23-.18-.54-.27-.96-.27h-1.14v2.11h1.14c.42,0,.74-.09.96-.27.21-.19.33-.45.33-.78s-.11-.6-.33-.78" fill="#797774"/><polygon points="141.08 79.13 138.46 85.18 137.07 85.18 134.46 79.13 135.97 79.13 137.82 83.45 139.68 79.13 141.08 79.13" fill="#797774"/><rect x="142.1" y="79.13" width="1.4" height="6.05" fill="#797774"/><path d="m146.67,84.88c-.5-.27-.89-.64-1.18-1.12-.29-.48-.43-1.01-.43-1.61s.14-1.14.43-1.61c.28-.47.67-.85,1.18-1.12.5-.27,1.06-.4,1.68-.4.53,0,1,.09,1.42.27.42.18.78.45,1.07.79l-.9.83c-.41-.47-.91-.71-1.52-.71-.37,0-.71.08-1,.24-.29.17-.52.39-.69.69-.17.29-.25.63-.25,1s.08.71.25,1c.17.29.39.53.69.69.29.16.62.24,1,.24.61,0,1.11-.24,1.52-.72l.9.83c-.29.35-.64.62-1.07.8-.43.18-.9.28-1.43.28-.62,0-1.17-.13-1.67-.4" fill="#797774"/><rect x="152.3" y="79.13" width="1.4" height="6.05" fill="#797774"/><path d="m156.89,84.88c-.5-.27-.9-.65-1.18-1.12-.28-.48-.43-1.01-.43-1.6s.14-1.13.43-1.6c.28-.48.68-.85,1.18-1.12.51-.27,1.07-.41,1.7-.41s1.19.13,1.7.41c.5.27.89.64,1.18,1.12.28.48.43,1.01.43,1.6s-.15,1.13-.43,1.6c-.29.48-.68.85-1.18,1.12-.51.27-1.07.4-1.7.4s-1.2-.13-1.7-.4m2.67-1.03c.29-.16.51-.4.68-.69.16-.29.24-.63.24-1s-.08-.71-.24-1c-.17-.3-.39-.52-.68-.69-.29-.16-.61-.24-.97-.24s-.68.08-.97.24c-.29.17-.51.39-.68.69-.17.29-.24.63-.24,1s.08.71.24,1c.16.29.39.53.68.69.29.16.61.24.97.24s.67-.08.97-.24" fill="#797774"/><path d="m166.43,79.13h2.75c.66,0,1.24.12,1.75.37.5.25.89.6,1.17,1.06.28.45.42.98.42,1.59s-.14,1.14-.42,1.59c-.28.45-.67.8-1.17,1.05-.51.25-1.09.38-1.75.38h-2.75v-6.05Zm2.69,4.9c.6,0,1.08-.17,1.45-.51.35-.33.54-.79.54-1.37s-.18-1.03-.54-1.37c-.36-.34-.85-.5-1.45-.5h-1.28v3.75h1.28Z" fill="#797774"/><polygon points="178.77 84.05 178.77 85.18 174.08 85.18 174.08 79.13 178.66 79.13 178.66 80.25 175.48 80.25 175.48 81.57 178.29 81.57 178.29 82.65 175.48 82.65 175.48 84.05 178.77 84.05" fill="#797774"/><path d="m187.35,83.88h-2.81l-.53,1.3h-1.44l2.7-6.05h1.39l2.7,6.05h-1.47l-.54-1.3Zm-.44-1.06l-.96-2.31-.95,2.31h1.92Z" fill="#797774"/><path d="m190.51,79.13h2.76c.65,0,1.23.12,1.74.37.51.25.9.6,1.17,1.06.28.45.43.98.43,1.59s-.15,1.14-.43,1.59c-.27.45-.66.8-1.17,1.05-.51.25-1.08.38-1.74.38h-2.76v-6.05Zm2.68,4.9c.61,0,1.09-.17,1.45-.51.36-.33.54-.79.54-1.37s-.18-1.03-.54-1.37c-.36-.34-.84-.5-1.45-.5h-1.28v3.75h1.28Z" fill="#797774"/><polygon points="203.67 85.18 203.67 81.55 201.88 84.54 201.25 84.54 199.48 81.63 199.48 85.18 198.17 85.18 198.17 79.13 199.33 79.13 201.59 82.89 203.82 79.13 204.97 79.13 204.99 85.18 203.67 85.18" fill="#797774"/><rect x="206.94" y="79.13" width="1.41" height="6.05" fill="#797774"/><polygon points="215.85 79.13 215.85 85.18 214.7 85.18 211.68 81.5 211.68 85.18 210.29 85.18 210.29 79.13 211.45 79.13 214.47 82.8 214.47 79.13 215.85 79.13" fill="#797774"/><rect x="217.79" y="79.13" width="1.4" height="6.05" fill="#797774"/><path d="m221.74,85.09c-.46-.13-.81-.3-1.09-.5l.48-1.06c.26.19.57.35.93.46.35.11.71.17,1.07.17.4,0,.7-.06.88-.17.19-.12.28-.28.28-.47,0-.15-.06-.27-.17-.36-.11-.09-.26-.17-.43-.23-.18-.05-.41-.12-.71-.19-.46-.11-.84-.22-1.13-.33-.3-.11-.55-.28-.76-.52-.21-.24-.31-.57-.31-.97,0-.35.09-.67.28-.95.19-.29.48-.52.86-.68.38-.17.85-.25,1.4-.25.39,0,.77.04,1.13.14.38.09.7.22.98.39l-.43,1.07c-.57-.32-1.12-.48-1.68-.48-.4,0-.68.07-.87.19-.2.13-.29.29-.29.5s.11.36.33.46c.22.1.54.2.99.3.47.11.84.22,1.14.33.3.11.54.28.75.52.21.24.31.56.31.96,0,.35-.09.66-.29.94-.19.29-.48.52-.87.68-.39.17-.85.25-1.41.25-.48,0-.94-.06-1.38-.19" fill="#797774"/><polygon points="228.33 80.27 226.4 80.27 226.4 79.13 231.67 79.13 231.67 80.27 229.73 80.27 229.73 85.18 228.33 85.18 228.33 80.27" fill="#797774"/><path d="m236.8,85.18l-1.17-1.69h-1.29v1.69h-1.4v-6.05h2.62c.54,0,1,.08,1.39.26.4.18.71.43.91.76.22.33.32.72.32,1.17s-.11.83-.32,1.16c-.22.33-.52.58-.92.75l1.36,1.95h-1.51Zm-.35-4.64c-.22-.18-.54-.27-.96-.27h-1.14v2.11h1.14c.42,0,.74-.09.96-.27.22-.19.33-.45.33-.78s-.11-.6-.33-.78" fill="#797774"/><path d="m243.8,83.88h-2.81l-.54,1.3h-1.43l2.7-6.05h1.38l2.71,6.05h-1.47l-.53-1.3Zm-.44-1.06l-.96-2.31-.96,2.31h1.92Z" fill="#797774"/><path d="m248.09,84.88c-.5-.27-.89-.64-1.17-1.12-.29-.48-.43-1.01-.43-1.61s.15-1.14.43-1.61c.28-.47.67-.85,1.17-1.12.5-.27,1.06-.4,1.68-.4.52,0,1,.09,1.42.27.42.18.78.45,1.07.79l-.9.83c-.41-.47-.92-.71-1.52-.71-.38,0-.71.08-1,.24-.3.17-.52.39-.69.69-.16.29-.25.63-.25,1s.09.71.25,1c.16.29.39.53.69.69.29.16.62.24,1,.24.6,0,1.11-.24,1.52-.72l.9.83c-.28.35-.65.62-1.08.8-.43.18-.9.28-1.42.28-.62,0-1.17-.13-1.67-.4" fill="#797774"/><rect x="253.72" y="79.13" width="1.4" height="6.05" fill="#797774"/><path d="m258.3,84.88c-.5-.27-.9-.64-1.18-1.12-.29-.48-.42-1.01-.42-1.6s.14-1.13.42-1.6c.28-.48.68-.85,1.18-1.12.51-.27,1.07-.41,1.7-.41s1.18.13,1.69.41c.5.27.89.64,1.18,1.12.29.48.44,1.01.44,1.6s-.14,1.13-.44,1.6c-.29.48-.68.85-1.18,1.12-.51.27-1.07.41-1.69.41s-1.2-.13-1.7-.41m2.67-1.03c.29-.16.52-.4.68-.69.16-.29.24-.63.24-1s-.08-.71-.24-1c-.16-.3-.39-.52-.68-.69-.28-.16-.61-.24-.96-.24s-.68.08-.97.24c-.29.17-.52.39-.68.69-.16.29-.24.63-.24,1s.09.71.24,1c.17.29.39.53.68.69.29.16.61.24.97.24s.68-.08.96-.24m-.58-6.46h1.45l-1.56,1.25h-1.06l1.16-1.25Z" fill="#797774"/><polygon points="270.43 79.13 270.43 85.18 269.28 85.18 266.27 81.5 266.27 85.18 264.88 85.18 264.88 79.13 266.03 79.13 269.05 82.8 269.05 79.13 270.43 79.13" fill="#797774"/><polygon points="276.59 80.27 274.66 80.27 274.66 79.13 279.93 79.13 279.93 80.27 278 80.27 278 85.18 276.59 85.18 276.59 80.27" fill="#797774"/><path d="m285.05,85.18l-1.17-1.69h-1.29v1.69h-1.4v-6.05h2.61c.54,0,1.01.08,1.4.26.4.18.7.43.91.76.21.33.32.72.32,1.17s-.11.83-.32,1.16c-.22.33-.52.58-.92.75l1.35,1.95h-1.5Zm-.36-4.64c-.22-.18-.54-.27-.95-.27h-1.15v2.11h1.15c.42,0,.74-.09.95-.27.21-.19.32-.45.32-.78s-.11-.6-.32-.78" fill="#797774"/><rect x="288.06" y="79.13" width="1.4" height="6.05" fill="#797774"/><path d="m296.67,82.58c.2.25.3.57.3.95,0,.53-.21.94-.62,1.22-.41.29-1.01.43-1.8.43h-3.12v-6.05h2.96c.74,0,1.3.14,1.7.42.39.28.6.67.6,1.15,0,.3-.07.56-.21.79-.15.23-.34.41-.59.54.35.11.61.29.81.55m-3.87-2.41v1.43h1.39c.35,0,.61-.07.79-.18.17-.13.26-.31.26-.54,0-.24-.09-.42-.26-.54-.18-.11-.45-.18-.79-.18h-1.39Zm2.47,3.77c.19-.12.29-.31.29-.56,0-.51-.37-.75-1.12-.75h-1.63v1.5h1.63c.38,0,.65-.06.83-.19" fill="#797774"/><path d="m299.22,84.57c-.48-.48-.72-1.17-.72-2.05v-3.39h1.4v3.34c0,1.08.45,1.62,1.35,1.62.43,0,.77-.13,1-.4.23-.26.34-.67.34-1.23v-3.34h1.39v3.39c0,.88-.24,1.57-.72,2.05-.48.48-1.15.71-2.02.71s-1.54-.24-2.02-.71" fill="#797774"/><polygon points="307.03 80.27 305.1 80.27 305.1 79.13 310.36 79.13 310.36 80.27 308.43 80.27 308.43 85.18 307.03 85.18 307.03 80.27" fill="#797774"/><path d="m315.31,83.88h-2.81l-.53,1.3h-1.44l2.7-6.05h1.39l2.7,6.05h-1.47l-.54-1.3Zm-.44-1.06l-.96-2.31-.96,2.31h1.92Z" fill="#797774"/><path d="m322.32,85.18l-1.16-1.69h-1.29v1.69h-1.41v-6.05h2.62c.54,0,1,.08,1.4.26.39.18.7.43.91.76.22.33.32.72.32,1.17s-.11.83-.32,1.16c-.21.33-.52.58-.92.75l1.36,1.95h-1.51Zm-.35-4.64c-.22-.18-.54-.27-.96-.27h-1.14v2.11h1.14c.42,0,.74-.09.96-.27.22-.19.32-.45.32-.78s-.1-.6-.32-.78" fill="#797774"/><rect x="325.34" y="79.13" width="1.4" height="6.05" fill="#797774"/><path d="m332.68,83.88h-2.81l-.54,1.3h-1.43l2.7-6.05h1.39l2.7,6.05h-1.47l-.53-1.3Zm-.44-1.06l-.96-2.31-.97,2.31h1.92Z" fill="#797774"/></g></g></svg>