<?xml version="1.0" encoding="UTF-8"?><svg id="Capa_2" xmlns="http://www.w3.org/2000/svg" xmlns:xlink="http://www.w3.org/1999/xlink" viewBox="0 0 209.66 97.96"><defs><clipPath id="clippath"><path d="m37.66,38.73l9.27,9.53,9.27-12.23-8.57-8.78c-8.08,4.92-9.97,11.48-9.97,11.48" fill="none"/></clipPath><linearGradient id="linear-gradient" x1="-392.59" y1="1163.33" x2="-392.2" y2="1163.33" gradientTransform="translate(52839.84 -17767.83) rotate(-90) scale(45.38 -45.38)" gradientUnits="userSpaceOnUse"><stop offset="0" stop-color="#fefefe"/><stop offset=".2" stop-color="#fbfafa"/><stop offset=".37" stop-color="#f4eff0"/><stop offset=".54" stop-color="#e9dddf"/><stop offset=".7" stop-color="#d9c3c7"/><stop offset=".86" stop-color="#c4a3a8"/><stop offset="1" stop-color="#ae7f87"/><stop offset="1" stop-color="#ae7f87"/></linearGradient><clipPath id="clippath-1"><path d="m56.19,36.03l8.43,13.06,2.18-2.2,7.83-7.93s-4.08-7.34-11.63-9.94l-6.8,7.01Z" fill="none"/></clipPath><linearGradient id="Degradado_sin_nombre_4" x1="-403.7" y1="1145.43" x2="-403.31" y2="1145.43" gradientTransform="translate(14939.26 42263.1) scale(36.86 -36.86)" gradientUnits="userSpaceOnUse"><stop offset="0" stop-color="#fefefe"/><stop offset=".2" stop-color="#fbfafa"/><stop offset=".37" stop-color="#f4eff0"/><stop offset=".54" stop-color="#e9dddf"/><stop offset=".7" stop-color="#d9c3c7"/><stop offset=".86" stop-color="#c4a3a8"/><stop offset="1" stop-color="#ae7f87"/><stop offset="1" stop-color="#ae7f87"/></linearGradient></defs><g id="Capa_1-2"><g><path d="m9.32,97.96h191.02c5.15,0,9.32-4.39,9.32-9.8V9.8c0-5.41-4.17-9.8-9.32-9.8H9.32C4.17,0,0,4.39,0,9.8v78.37c0,5.41,4.17,9.8,9.32,9.8Z" fill="#691c32"/><g><polygon points="171.64 29.21 149.86 29.21 149.86 35.07 157.19 35.07 157.19 46.16 164.37 46.16 164.37 35.07 171.64 35.07 171.64 29.21" fill="#fff"/><path d="m152.8,46.16l-8.07-16.9h-10.46l-8.36,16.9s8.79.05,8.89,0l2.55-6.29s4.8,1.32,6.58,6.29h8.88Zm-15.19-7.04l2.14-5.33,1.63,5.33h-3.77Z" fill="#fff"/><path d="m124.13,29.6v5.26c-.11-.14-.45-.26-.78-.38-3.36-1.19-7.63-1.38-8.64-1.05-.91.29-1.1.89-.43,1.27.43.26,2.72.62,5.17,1.19,5.82,1.34,8.03,3.61,5.87,6.96-1.78,2.87-8.84,4.54-18.5,2.82-.58-.09-.73-.36-1.93-.48v-5.48c.96.17,1.35.36,1.73.5,2.4,1,6.88,1.65,8.7,1.46,1.34-.12,1.92-.74,1.25-1.27-.38-.31-3.07-.59-5.38-1.1-6.01-1.32-7.65-3.52-5.92-6.67,1.4-2.56,6.02-4.21,13.61-3.75,1.35.07,2.69.24,4.04.45.48.07.96.17,1.21.26" fill="#fff"/><polygon points="120.75 71.78 120.73 61.14 115.51 69.91 113.66 69.91 108.47 61.37 108.47 71.78 104.61 71.78 104.61 54.05 108.01 54.05 114.65 65.07 121.18 54.05 124.55 54.05 124.6 71.78 120.75 71.78" fill="#fff"/><path d="m132.42,70.9c-1.48-.79-2.64-1.89-3.47-3.28-.84-1.39-1.26-2.96-1.26-4.7s.42-3.31,1.26-4.7c.83-1.39,1.99-2.49,3.47-3.28,1.48-.79,3.14-1.19,4.98-1.19s3.5.4,4.97,1.19c1.47.79,2.62,1.89,3.47,3.28.85,1.39,1.27,2.96,1.27,4.7s-.42,3.31-1.27,4.7c-.85,1.39-2,2.49-3.47,3.28-1.47.79-3.13,1.19-4.97,1.19s-3.5-.4-4.98-1.19m7.82-3.03c.84-.48,1.51-1.15,1.99-2.01.48-.86.72-1.84.72-2.94s-.24-2.08-.72-2.94c-.48-.86-1.15-1.53-1.99-2.01-.84-.49-1.79-.72-2.84-.72s-1.99.24-2.84.72c-.85.48-1.51,1.15-1.99,2.01-.48.86-.72,1.84-.72,2.94s.24,2.08.72,2.94c.48.86,1.14,1.53,1.99,2.01.84.48,1.79.72,2.84.72s1.99-.24,2.84-.72m-1.72-18.91h4.26l-4.59,3.65h-3.09l3.42-3.65Z" fill="#fff"/><polygon points="166.66 54.05 158.98 71.78 154.93 71.78 147.28 54.05 151.71 54.05 157.11 66.72 162.58 54.05 166.66 54.05" fill="#fff"/><rect x="168.13" y="54.05" width="4.11" height="17.73" fill="#fff"/><polygon points="176.44 54.05 180.55 54.05 180.55 68.44 189.44 68.44 189.44 71.78 176.44 71.78 176.44 54.05" fill="#fff"/><path d="m56.16,36.03c4.72-4.83,8.92-9.21,13.22-13.49,5.12-5.11,9.3-4.86,14.06.72,15.85,18.58,9.89,48.07-16.19,57.84-7.55,2.83-16.07,2.68-23.51-.46-25.26-10.65-30.4-39.78-14.37-57.89,4.34-4.91,8.56-5.11,13.3-.45,4.4,4.34,8.67,8.82,13.48,13.72m-18.53,2.7c-4,8.68-1.35,18.54,6.04,24.25,7.43,5.75,18.4,5.53,25.61-.5,6.89-5.77,9.31-15.71,5.41-23.46-.03-.04-.04-.08-.06-.12-3.88,3.95-7.63,7.84-11.45,11.65-5.29,5.28-8.77,5.27-14.12-.1-3.8-3.81-7.51-7.69-11.43-11.72" fill="#fff" fill-rule="evenodd"/><g clip-path="url(#clippath)"><rect x="33.64" y="24.02" width="26.56" height="27.47" transform="translate(-12.59 28.52) rotate(-30)" fill="url(#linear-gradient)"/></g><g clip-path="url(#clippath-1)"><rect x="52.41" y="25.76" width="26" height="26.6" transform="translate(-10.77 37.94) rotate(-30)" fill="url(#Degradado_sin_nombre_4)"/></g></g></g></g></svg>