<?xml version="1.0" encoding="UTF-8"?><svg id="Capa_2" xmlns="http://www.w3.org/2000/svg" xmlns:xlink="http://www.w3.org/1999/xlink" viewBox="0 0 182.84 68.82"><defs><clipPath id="clippath"><path d="m18.84,21.45l10.01,10.3,10.02-13.22-9.26-9.49c-8.73,5.32-10.77,12.4-10.77,12.4" fill="none"/></clipPath><linearGradient id="Degradado_sin_nombre_2" x1="-1698.56" y1="-510.78" x2="-1698.13" y2="-510.78" gradientTransform="translate(-15871.62 52889.8) rotate(90) scale(31.13)" gradientUnits="userSpaceOnUse"><stop offset="0" stop-color="#fff"/><stop offset=".18" stop-color="#fff"/><stop offset=".36" stop-color="#c2c2c2"/><stop offset=".68" stop-color="#5a5a5a"/><stop offset=".9" stop-color="#191919"/><stop offset="1" stop-color="#000"/></linearGradient><mask id="mask" x="7.96" y="-.55" width="41.77" height="41.89" maskUnits="userSpaceOnUse"><g id="mask-2"><rect x="14.04" y="5.31" width="29.62" height="30.17" transform="translate(-6.47 21.26) rotate(-36.66)" fill="url(#Degradado_sin_nombre_2)"/></g></mask><linearGradient id="Degradado_sin_nombre_4" x1="-1698.56" y1="-510.78" x2="-1698.13" y2="-510.78" gradientTransform="translate(-15871.62 52889.8) rotate(90) scale(31.13)" gradientUnits="userSpaceOnUse"><stop offset="0" stop-color="#451221"/><stop offset=".18" stop-color="#451221"/><stop offset=".41" stop-color="#4f1426"/><stop offset="1" stop-color="#691c32"/></linearGradient><clipPath id="clippath-1"><path d="m38.87,18.53l9.11,14.11,2.35-2.38,8.46-8.57s-4.41-7.93-12.57-10.74l-7.35,7.57h0Z" fill="none"/></clipPath><linearGradient id="Degradado_sin_nombre_2-2" x1="-1750.97" y1="-562.25" x2="-1750.55" y2="-562.25" gradientTransform="translate(-45236.85 -14523.67) rotate(-180) scale(25.87)" xlink:href="#Degradado_sin_nombre_2"/><mask id="mask-1" x="29.71" y="2.54" width="38.25" height="38.52" maskUnits="userSpaceOnUse"><g id="mask-1-2"><rect x="34.53" y="7.85" width="28.6" height="27.91" transform="translate(6.16 54.04) rotate(-61.13)" fill="url(#Degradado_sin_nombre_2-2)"/></g></mask><linearGradient id="Degradado_sin_nombre_4-2" x1="-1750.97" y1="-562.25" x2="-1750.55" y2="-562.25" gradientTransform="translate(-45236.85 -14523.67) rotate(-180) scale(25.87)" xlink:href="#Degradado_sin_nombre_4"/></defs><g id="Capa_2-2"><path d="m38.84,18.53c5.1-5.22,9.64-9.95,14.28-14.58,5.53-5.52,10.05-5.25,15.19.78,13.63,15.98,12.34,39.42-2.96,53.64-15.2,14.12-38.61,13.91-53.48-.49C-3.16,43.33-4.02,19.91,9.9,4.18c4.69-5.31,9.25-5.52,14.37-.48,4.76,4.69,9.37,9.53,14.57,14.83m-20.03,2.92c-4.32,9.38-1.46,20.03,6.53,26.21,8.03,6.22,19.88,5.98,27.67-.54,7.45-6.24,10.06-16.98,5.84-25.34-.03-.05-.04-.09-.07-.13-4.19,4.27-8.25,8.47-12.37,12.58-5.72,5.7-9.48,5.69-15.25-.11-4.1-4.11-8.12-8.31-12.35-12.66" fill="#9f2241" fill-rule="evenodd"/><g clip-path="url(#clippath)"><g mask="url(#mask)"><rect x="14.04" y="5.31" width="29.62" height="30.17" transform="translate(-6.47 21.26) rotate(-36.66)" fill="url(#Degradado_sin_nombre_4)"/></g></g><g clip-path="url(#clippath-1)"><g mask="url(#mask-1)"><rect x="34.53" y="7.85" width="28.6" height="27.91" transform="translate(6.16 54.04) rotate(-61.13)" fill="url(#Degradado_sin_nombre_4-2)"/></g></g><polygon points="163.6 11.16 140.08 11.16 140.08 17.49 147.99 17.49 147.99 29.47 155.75 29.47 155.76 17.49 163.6 17.49 163.6 11.16" fill="#1d1d1b"/><path d="m143.25,29.47l-8.73-18.25h-11.3l-9.03,18.25s9.5.06,9.6,0l2.75-6.79s5.19,1.43,7.11,6.79h9.6Zm-16.41-7.61l2.31-5.76,1.76,5.76s-4.07,0-4.07,0Z" fill="#1d1d1b"/><path d="m112.27,11.58v5.68c-.12-.15-.48-.28-.84-.41-3.63-1.29-8.24-1.49-9.33-1.13-.99.31-1.19.96-.47,1.37.47.29,2.94.67,5.59,1.29,6.29,1.45,8.67,3.9,6.34,7.52-1.92,3.1-9.56,4.91-19.99,3.04-.62-.1-.79-.39-2.08-.51v-5.92c1.03.18,1.45.39,1.87.54,2.6,1.08,7.43,1.78,9.4,1.57,1.45-.13,2.08-.8,1.35-1.37-.41-.33-3.32-.64-5.81-1.18-6.49-1.42-8.27-3.8-6.4-7.21,1.51-2.76,6.5-4.54,14.71-4.05,1.46.08,2.91.26,4.37.49.52.08,1.04.18,1.31.28" fill="#1d1d1b"/><polygon points="108.63 57.16 108.6 45.66 102.96 55.13 100.96 55.13 95.35 45.91 95.35 57.16 91.19 57.16 91.19 38 94.86 38 102.03 49.9 109.09 38 112.73 38 112.79 57.16 108.63 57.16" fill="#6f7271"/><path d="m121.23,56.2c-1.6-.86-2.85-2.04-3.75-3.55-.91-1.5-1.36-3.2-1.36-5.08s.45-3.57,1.36-5.08c.9-1.5,2.15-2.69,3.75-3.54,1.6-.86,3.39-1.29,5.38-1.29s3.78.43,5.37,1.29,2.83,2.04,3.75,3.54c.91,1.51,1.37,3.2,1.37,5.08s-.45,3.58-1.37,5.08-2.16,2.69-3.75,3.55-3.38,1.29-5.37,1.29-3.78-.43-5.38-1.29m8.44-3.27c.91-.52,1.63-1.24,2.15-2.17.52-.93.78-1.99.78-3.18s-.26-2.24-.78-3.17c-.52-.93-1.24-1.65-2.15-2.17-.91-.52-1.93-.78-3.06-.78s-2.16.26-3.07.78c-.91.52-1.63,1.24-2.15,2.17-.52.93-.78,1.99-.78,3.17s.26,2.24.78,3.18c.52.93,1.24,1.65,2.15,2.17.91.52,1.94.78,3.07.78s2.15-.26,3.06-.78m-1.86-20.43h4.6l-4.95,3.94h-3.34l3.69-3.94h0Z" fill="#6f7271"/><polygon points="158.23 38 149.93 57.16 145.55 57.16 137.29 38 142.08 38 147.91 51.68 153.82 38 158.23 38" fill="#6f7271"/><rect x="159.82" y="38" width="4.43" height="19.16" fill="#6f7271"/><polygon points="168.8 38 173.23 38 173.23 53.55 182.84 53.55 182.84 57.16 168.8 57.16 168.8 38" fill="#6f7271"/></g></svg>